<?xml version="1.0" encoding="UTF-8"?><svg id="Layer_1" xmlns="http://www.w3.org/2000/svg" viewBox="0 0 540 42.72"><defs><style>.cls-1{fill:none;}.cls-2{fill:#fff;}.cls-3{fill:#a79775;}</style></defs><g><polygon class="cls-2" points="222.5 .72 222.5 29.91 222.38 29.91 204.52 .72 191.95 .72 191.95 42.72 201.2 42.72 201.2 12.82 201.32 12.82 219.65 42.72 231.75 42.72 231.75 8.9 243.48 8.9 243.48 42.72 252.73 42.72 252.73 8.9 264.72 8.9 264.72 .72 222.5 .72"/><polygon class="cls-2" points="222.5 .72 222.5 29.91 222.38 29.91 204.52 .72 191.95 .72 191.95 42.72 201.2 42.72 201.2 12.82 201.32 12.82 219.65 42.72 231.75 42.72 231.75 8.9 243.48 8.9 243.48 42.72 252.73 42.72 252.73 8.9 264.72 8.9 264.72 .72 222.5 .72"/><path class="cls-2" d="m279.79,10.68l-8.43,7.42-5.04-5.81,13.7-11.57h8.31v42h-8.54V10.68Z"/><polygon class="cls-2" points="222.5 .72 222.5 29.91 222.38 29.91 204.52 .72 191.95 .72 191.95 42.72 201.2 42.72 201.2 12.82 201.32 12.82 219.65 42.72 231.75 42.72 231.75 8.9 243.48 8.9 243.48 42.72 252.73 42.72 252.73 8.9 264.72 8.9 264.72 .72 222.5 .72"/></g><g><g><path class="cls-3" d="m311.69,16.3h-8l-.09,3.1c.44-.15,1.03-.23,1.79-.23,1.02,0,1.96.15,2.82.46.85.3,1.59.75,2.21,1.32.62.58,1.1,1.28,1.44,2.11s.51,1.75.51,2.78c0,1.14-.2,2.15-.58,3.05-.39.89-.93,1.65-1.61,2.26-.68.62-1.49,1.09-2.43,1.41-.94.32-1.96.48-3.06.48-1.75,0-3.21-.43-4.38-1.28-1.18-.85-1.98-2.14-2.42-3.87l4.47-1.02c.11.72.42,1.31.91,1.75.49.45,1.11.67,1.85.67.91,0,1.64-.28,2.18-.85.54-.57.81-1.29.81-2.16,0-.66-.14-1.21-.41-1.64s-.64-.77-1.08-1.02c-.45-.26-.94-.43-1.49-.53-.55-.09-1.1-.14-1.65-.14-.7,0-1.41.07-2.12.2-.71.13-1.4.31-2.06.54l.23-11.13h12.19v3.76Z"/><path class="cls-3" d="m319.77,16.47h-5.75v-3.93h15.94v3.93h-5.75v16.23h-4.44v-16.23Z"/><path class="cls-3" d="m332.21,12.54h4.44v7.52h8.63v-7.52h4.44v20.16h-4.44v-8.71h-8.63v8.71h-4.44V12.54Z"/></g><g><path class="cls-3" d="m303.49,42.2c-.35.18-.72.32-1.1.4s-.77.12-1.17.12c-.42,0-.81-.07-1.17-.2s-.66-.32-.92-.57c-.26-.25-.46-.54-.61-.9-.14-.35-.22-.74-.22-1.17s.07-.82.22-1.17c.14-.35.35-.65.61-.9.26-.25.57-.44.92-.57.36-.13.74-.2,1.17-.2s.83.05,1.19.16c.36.1.68.28.96.54l-.84.92c-.16-.17-.35-.29-.55-.38-.2-.09-.46-.13-.76-.13-.25,0-.48.04-.69.13-.21.09-.38.21-.53.36s-.26.34-.34.55-.12.44-.12.69.04.49.12.7c.08.21.19.39.34.55s.32.28.53.36c.21.09.44.13.69.13s.48-.03.67-.09c.19-.06.34-.12.45-.18v-.88h-.97v-1.1h2.11v2.82Z"/><path class="cls-3" d="m304.74,37.18h3.67v1.1h-2.48v1.01h2.34v1.1h-2.34v1.1h2.62v1.1h-3.81v-5.4Z"/><path class="cls-3" d="m309.65,37.18h1.62l2.3,3.75h.02v-3.75h1.19v5.4h-1.56l-2.36-3.84h-.02v3.84h-1.19v-5.4Z"/><path class="cls-3" d="m316.06,37.18h3.67v1.1h-2.48v1.01h2.34v1.1h-2.34v1.1h2.62v1.1h-3.81v-5.4Z"/><path class="cls-3" d="m320.97,37.18h2.09c.27,0,.53.03.78.08s.46.14.65.27c.19.12.33.29.44.5.11.21.16.47.16.79,0,.38-.1.71-.3.97s-.49.44-.87.51l1.37,2.28h-1.43l-1.13-2.16h-.59v2.16h-1.19v-5.4Zm1.19,2.23h.7c.11,0,.22,0,.34-.01s.23-.03.32-.07c.1-.04.18-.1.24-.18.06-.08.1-.2.1-.34,0-.14-.03-.25-.08-.33-.06-.08-.13-.14-.21-.19-.09-.04-.19-.07-.3-.09-.11-.02-.22-.02-.33-.02h-.78v1.23Z"/><path class="cls-3" d="m327.84,37.18h.98l2.35,5.4h-1.34l-.47-1.14h-2.1l-.45,1.14h-1.31l2.33-5.4Zm.46,1.57l-.66,1.68h1.32l-.66-1.68Z"/><path class="cls-3" d="m332.21,38.23h-1.54v-1.05h4.27v1.05h-1.54v4.35h-1.19v-4.35Z"/><path class="cls-3" d="m335.68,37.18h1.19v5.4h-1.19v-5.4Z"/><path class="cls-3" d="m337.82,39.88c0-.43.07-.82.22-1.17.14-.35.35-.65.61-.9s.57-.44.92-.57c.36-.13.74-.2,1.17-.2s.81.07,1.17.2c.36.13.66.32.92.57s.46.54.61.9c.14.35.22.74.22,1.17s-.07.82-.22,1.17c-.15.35-.35.65-.61.9-.26.25-.57.44-.92.57-.36.13-.74.2-1.17.2s-.81-.07-1.17-.2c-.36-.13-.66-.32-.92-.57-.26-.25-.46-.54-.61-.9-.14-.35-.22-.74-.22-1.17Zm1.23,0c0,.25.04.49.12.7.08.21.19.39.34.55.15.16.32.28.53.36s.44.13.69.13.48-.04.69-.13.38-.21.53-.36c.15-.16.26-.34.34-.55.08-.21.12-.44.12-.7s-.04-.48-.12-.69-.19-.4-.34-.55c-.15-.16-.32-.28-.53-.36-.21-.09-.44-.13-.69-.13s-.48.04-.69.13c-.21.09-.38.21-.53.36-.15.16-.26.34-.34.55s-.12.44-.12.69Z"/><path class="cls-3" d="m344.61,37.18h1.62l2.29,3.75h.02v-3.75h1.19v5.4h-1.56l-2.36-3.84h-.01v3.84h-1.19v-5.4Z"/></g></g><rect class="cls-1" width="540" height="42"/></svg>